<svg width="26" height="30" viewBox="0 0 26 30" fill="none" xmlns="http://www.w3.org/2000/svg">
<path d="M12.973 0.621094C10.2784 0.621094 7.69419 1.69151 5.78884 3.59686C3.88349 5.50221 2.81308 8.08642 2.81308 10.781V15.9016C2.81329 16.1267 2.76111 16.3488 2.66068 16.5504L0.1686 21.5331C0.046865 21.7765 -0.0106173 22.047 0.00161294 22.3189C0.0138432 22.5908 0.0953798 22.8551 0.238479 23.0866C0.381578 23.3181 0.581487 23.5092 0.819221 23.6417C1.05695 23.7742 1.32462 23.8438 1.59679 23.8437H24.3492C24.6213 23.8438 24.889 23.7742 25.1267 23.6417C25.3645 23.5092 25.5644 23.3181 25.7075 23.0866C25.8506 22.8551 25.9321 22.5908 25.9443 22.3189C25.9566 22.047 25.8991 21.7765 25.7773 21.5331L23.2867 16.5504C23.1858 16.349 23.1331 16.1268 23.1329 15.9016V10.781C23.1329 8.08642 22.0625 5.50221 20.1571 3.59686C18.2518 1.69151 15.6675 0.621094 12.973 0.621094ZM12.973 29.198C12.0722 29.1984 11.1934 28.9195 10.4577 28.3996C9.72204 27.8797 9.16575 27.1444 8.86547 26.2951H17.0805C16.7802 27.1444 16.2239 27.8797 15.4882 28.3996C14.7526 28.9195 13.8738 29.1984 12.973 29.198Z" fill="white"/>
</svg>
