<svg width="21" height="24" viewBox="0 0 21 24" fill="none" xmlns="http://www.w3.org/2000/svg">
<path d="M0 21.2571V8.91428C0 8.48 0.0931872 8.06857 0.279562 7.68C0.465937 7.29143 0.72275 6.97143 1.05 6.72L8.925 0.548571C9.38437 0.182857 9.90937 0 10.5 0C11.0906 0 11.6156 0.182857 12.075 0.548571L19.95 6.72C20.2781 6.97143 20.5354 7.29143 20.7217 7.68C20.9081 8.06857 21.0009 8.48 21 8.91428V21.2571C21 22.0114 20.7427 22.6574 20.2282 23.195C19.7137 23.7326 19.096 24.0009 18.375 24H14.4375C14.0656 24 13.7541 23.8683 13.503 23.605C13.2519 23.3417 13.1259 23.0162 13.125 22.6286V15.7714C13.125 15.3829 12.999 15.0574 12.747 14.795C12.495 14.5326 12.1835 14.4009 11.8125 14.4H9.1875C8.81562 14.4 8.50412 14.5317 8.253 14.795C8.00187 15.0583 7.87587 15.3838 7.875 15.7714V22.6286C7.875 23.0171 7.749 23.3431 7.497 23.6064C7.245 23.8697 6.9335 24.0009 6.5625 24H2.625C1.90312 24 1.28537 23.7317 0.77175 23.195C0.258125 22.6583 0.000875 22.0123 0 21.2571Z" fill="white"/>
</svg>
