<svg width="24" height="29" viewBox="0 0 24 29" fill="none" xmlns="http://www.w3.org/2000/svg">
<path d="M19.0408 4.54333C17.9948 3.2859 17.4182 1.67137 17.4184 0H12.6888V19.9778C12.6531 21.0591 12.2197 22.0836 11.4801 22.8351C10.7404 23.5865 9.75245 24.0062 8.72449 24.0056C6.55102 24.0056 4.7449 22.1367 4.7449 19.8167C4.7449 17.0456 7.28571 14.9672 9.90306 15.8211V10.73C4.62245 9.98889 0 14.3067 0 19.8167C0 25.1817 4.22449 29 8.70918 29C13.5153 29 17.4184 24.8917 17.4184 19.8167V9.68278C19.3362 11.1325 21.6388 11.9104 24 11.9061V6.92778C24 6.92778 21.1224 7.07278 19.0408 4.54333Z" fill="#333333"/>
</svg>
