<svg width="32" height="32" viewBox="0 0 32 32" fill="none" xmlns="http://www.w3.org/2000/svg">
<circle cx="16" cy="16" r="16" fill="#E9E7FF"/>
<path d="M19 11.5H9.5C9.10218 11.5 8.72064 11.658 8.43934 11.9393C8.15804 12.2206 8 12.6022 8 13V20.5C8 20.8978 8.15804 21.2794 8.43934 21.5607C8.72064 21.842 9.10218 22 9.5 22H22C22.3978 22 22.7794 21.842 23.0607 21.5607C23.342 21.2794 23.5 20.8978 23.5 20.5V16M21.25 13.75L25 10M25 10H21.25M25 10V13.75" stroke="#4932F4" stroke-linecap="round" stroke-linejoin="round"/>
<path d="M18.5 16.75L14.375 19.1316L14.375 14.3684L18.5 16.75Z" fill="#4932F4"/>
</svg>
