<svg width="20" height="20" viewBox="0 0 20 20" fill="none" xmlns="http://www.w3.org/2000/svg">
<path d="M0 4.16667C0 3.0616 0.438987 2.00179 1.22039 1.22039C2.00179 0.438987 3.0616 0 4.16667 0H15.8333C16.9384 0 17.9982 0.438987 18.7796 1.22039C19.561 2.00179 20 3.0616 20 4.16667V10H14.1667C13.0616 10 12.0018 10.439 11.2204 11.2204C10.439 12.0018 10 13.0616 10 14.1667V20H4.16667C3.0616 20 2.00179 19.561 1.22039 18.7796C0.438987 17.9982 0 16.9384 0 15.8333V4.16667ZM11.6667 19.765C12.2561 19.5583 12.7915 19.2216 13.2333 18.78L18.78 13.2317C19.2208 12.7902 19.5569 12.2554 19.7633 11.6667H14.1667C13.5036 11.6667 12.8677 11.9301 12.3989 12.3989C11.9301 12.8677 11.6667 13.5036 11.6667 14.1667V19.765Z" fill="white"/>
</svg>
