<svg width="26" height="33" viewBox="0 0 26 33" fill="none" xmlns="http://www.w3.org/2000/svg">
<path d="M12.973 0.621582C10.2784 0.621582 7.69419 1.692 5.78884 3.59735C3.88349 5.5027 2.81308 8.08691 2.81308 10.7815V15.9021C2.81329 16.1272 2.76111 16.3493 2.66068 16.5508L0.1686 21.5336C0.046865 21.777 -0.0106173 22.0475 0.00161294 22.3194C0.0138432 22.5913 0.0953798 22.8555 0.238479 23.0871C0.381578 23.3186 0.581487 23.5097 0.819221 23.6422C1.05695 23.7747 1.32462 23.8442 1.59679 23.8442H24.3492C24.6213 23.8442 24.889 23.7747 25.1267 23.6422C25.3645 23.5097 25.5644 23.3186 25.7075 23.0871C25.8506 22.8555 25.9321 22.5913 25.9443 22.3194C25.9566 22.0475 25.8991 21.777 25.7773 21.5336L23.2867 16.5508C23.1858 16.3495 23.1331 16.1273 23.1329 15.9021V10.7815C23.1329 8.08691 22.0625 5.5027 20.1571 3.59735C18.2518 1.692 15.6675 0.621582 12.973 0.621582ZM12.973 28.1984C12.0721 28.1989 11.1934 27.92 10.4577 27.4001C9.72204 26.8802 9.16575 26.1449 8.86547 25.2956H17.0805C16.7802 26.1449 16.2239 26.8802 15.4882 27.4001C14.7526 27.92 13.8738 28.1989 12.973 28.1984Z" fill="#333333"/>
</svg>
