<svg width="29" height="29" viewBox="0 0 29 29" fill="none" xmlns="http://www.w3.org/2000/svg">
<path fill-rule="evenodd" clip-rule="evenodd" d="M0 12.8889C0 6.81339 -1.64622e-07 3.77483 1.88822 1.88822C3.77644 0.00161099 6.81339 0 12.8889 0H16.1111C22.1866 0 25.2252 -1.64622e-07 27.1118 1.88822C28.9984 3.77644 29 6.81339 29 12.8889V16.1111C29 22.1866 29 25.2252 27.1118 27.1118C25.2236 28.9984 22.1866 29 16.1111 29H12.8889C6.81339 29 3.77483 29 1.88822 27.1118C0.00161099 25.2236 0 22.1866 0 16.1111V12.8889ZM24.1667 7.25C24.1667 7.89094 23.9121 8.50563 23.4588 8.95884C23.0056 9.41205 22.3909 9.66667 21.75 9.66667C21.1091 9.66667 20.4944 9.41205 20.0412 8.95884C19.5879 8.50563 19.3333 7.89094 19.3333 7.25C19.3333 6.60906 19.5879 5.99437 20.0412 5.54116C20.4944 5.08794 21.1091 4.83333 21.75 4.83333C22.3909 4.83333 23.0056 5.08794 23.4588 5.54116C23.9121 5.99437 24.1667 6.60906 24.1667 7.25ZM17.7222 16.1111C17.7222 16.9657 17.3827 17.7853 16.7785 18.3896C16.1742 18.9938 15.3546 19.3333 14.5 19.3333C13.6454 19.3333 12.8258 18.9938 12.2215 18.3896C11.6173 17.7853 11.2778 16.9657 11.2778 16.1111C11.2778 15.2565 11.6173 14.4369 12.2215 13.8327C12.8258 13.2284 13.6454 12.8889 14.5 12.8889C15.3546 12.8889 16.1742 13.2284 16.7785 13.8327C17.3827 14.4369 17.7222 15.2565 17.7222 16.1111ZM20.9444 16.1111C20.9444 17.8203 20.2655 19.4595 19.0569 20.668C17.8483 21.8766 16.2092 22.5556 14.5 22.5556C12.7908 22.5556 11.1517 21.8766 9.94309 20.668C8.73452 19.4595 8.05556 17.8203 8.05556 16.1111C8.05556 14.4019 8.73452 12.7628 9.94309 11.5542C11.1517 10.3456 12.7908 9.66667 14.5 9.66667C16.2092 9.66667 17.8483 10.3456 19.0569 11.5542C20.2655 12.7628 20.9444 14.4019 20.9444 16.1111Z" fill="#333333"/>
</svg>
