<svg width="16" height="13" viewBox="0 0 16 13" fill="none" xmlns="http://www.w3.org/2000/svg">
<path d="M1 2.57143C1 2.15466 1.16556 1.75496 1.46026 1.46026C1.75496 1.16556 2.15466 1 2.57143 1H13.5714C13.9882 1 14.3879 1.16556 14.6826 1.46026C14.9773 1.75496 15.1429 2.15466 15.1429 2.57143V10.4286C15.1429 10.8453 14.9773 11.245 14.6826 11.5397C14.3879 11.8344 13.9882 12 13.5714 12H2.57143C2.15466 12 1.75496 11.8344 1.46026 11.5397C1.16556 11.245 1 10.8453 1 10.4286V2.57143Z" stroke="#666666" stroke-width="1.5" stroke-linecap="round" stroke-linejoin="round"/>
<path d="M1 2.57129L8.07143 7.28558L15.1429 2.57129" stroke="#666666" stroke-width="1.5" stroke-linecap="round" stroke-linejoin="round"/>
</svg>
