<svg width="19" height="20" viewBox="0 0 19 20" fill="none" xmlns="http://www.w3.org/2000/svg">
<path d="M2.15909 20C1.56534 20 1.05723 19.7826 0.634773 19.3478C0.212311 18.913 0.000719697 18.3896 0 17.7778V2.22222C0 1.61111 0.211591 1.08815 0.634773 0.653333C1.05795 0.218518 1.56606 0.00074074 2.15909 0H8.63636C8.94223 0 9.19881 0.106667 9.40608 0.32C9.61335 0.533333 9.71663 0.797036 9.71591 1.11111C9.71519 1.42518 9.61155 1.68926 9.405 1.90333C9.19845 2.11741 8.94223 2.2237 8.63636 2.22222H2.15909V17.7778H8.63636C8.94223 17.7778 9.19881 17.8844 9.40608 18.0978C9.61335 18.3111 9.71663 18.5748 9.71591 18.8889C9.71519 19.2029 9.61155 19.467 9.405 19.6811C9.19845 19.8952 8.94223 20.0015 8.63636 20H2.15909ZM15.3026 11.1111H7.55682C7.25095 11.1111 6.99473 11.0044 6.78818 10.7911C6.58163 10.5778 6.47799 10.3141 6.47727 9.99999C6.47655 9.68592 6.58019 9.42222 6.78818 9.20888C6.99617 8.99555 7.25239 8.88888 7.55682 8.88888H15.3026L13.2784 6.80555C13.0805 6.60185 12.9815 6.35185 12.9815 6.05555C12.9815 5.75925 13.0805 5.5 13.2784 5.27777C13.4763 5.05555 13.7282 4.93963 14.0341 4.93C14.34 4.92037 14.6009 5.02703 14.8168 5.25L18.6761 9.22222C18.892 9.44444 19 9.7037 19 9.99999C19 10.2963 18.892 10.5555 18.6761 10.7778L14.8168 14.75C14.6009 14.9722 14.3446 15.0789 14.0481 15.07C13.7516 15.0611 13.495 14.9452 13.2784 14.7222C13.0805 14.5 12.9862 14.2363 12.9956 13.9311C13.0049 13.6259 13.1082 13.3711 13.3054 13.1667L15.3026 11.1111Z" fill="#666666"/>
</svg>
