<svg width="5" height="10" viewBox="0 0 5 10" fill="none" xmlns="http://www.w3.org/2000/svg">
<path d="M0.250151 4H4.75028C4.79584 3.99985 4.8405 3.98642 4.87945 3.96116C4.9184 3.93591 4.95017 3.89978 4.97133 3.85666C4.9925 3.81355 5.00226 3.76508 4.99956 3.71649C4.99687 3.66789 4.98182 3.62099 4.95603 3.58085L2.70597 0.107993C2.61272 -0.0359975 2.38821 -0.0359975 2.29471 0.107993L0.0446447 3.58085C0.0186002 3.62091 0.00332707 3.66783 0.000484745 3.71651C-0.00235758 3.76519 0.00733961 3.81377 0.0285227 3.85697C0.0497058 3.90018 0.0815647 3.93635 0.120638 3.96157C0.159711 3.98678 0.204504 4.00008 0.250151 4Z" fill="#999999"/>
<path d="M4.74985 6L0.249721 6C0.20416 6.00015 0.1595 6.01358 0.120549 6.03884C0.0815977 6.06409 0.0498303 6.10022 0.0286664 6.14334C0.00750241 6.18645 -0.00225702 6.23492 0.000438538 6.28352C0.00313457 6.33211 0.0181835 6.37901 0.0439657 6.41915L2.29403 9.89201C2.38728 10.036 2.61179 10.036 2.70529 9.89201L4.95536 6.41915C4.9814 6.37909 4.99667 6.33218 4.99952 6.28349C5.00236 6.23481 4.99266 6.18623 4.97148 6.14303C4.95029 6.09982 4.91844 6.06365 4.87936 6.03843C4.84029 6.01322 4.7955 5.99992 4.74985 6Z" fill="#999999"/>
</svg>
