<svg width="10" height="2" viewBox="0 0 10 2" fill="none" xmlns="http://www.w3.org/2000/svg">
<path d="M0.972018 0.000226259C1.51202 0.000226259 1.94402 0.432226 1.94402 0.972226C1.94402 1.51223 1.51202 1.94423 0.972018 1.94423C0.432018 1.94423 1.76132e-05 1.51223 1.76132e-05 0.972226C1.76132e-05 0.432226 0.432018 0.000226259 0.972018 0.000226259ZM4.96802 0.000226259C5.50802 0.000226259 5.94002 0.432226 5.94002 0.972226C5.94002 1.51223 5.50802 1.94423 4.96802 1.94423C4.42802 1.94423 3.99602 1.51223 3.99602 0.972226C3.99602 0.432226 4.42802 0.000226259 4.96802 0.000226259ZM8.96402 0.000226259C9.50402 0.000226259 9.93602 0.432226 9.93602 0.972226C9.93602 1.51223 9.50402 1.94423 8.96402 1.94423C8.42402 1.94423 7.99202 1.51223 7.99202 0.972226C7.99202 0.432226 8.42402 0.000226259 8.96402 0.000226259Z" fill="black"/>
</svg>
