<svg width="12" height="12" viewBox="0 0 12 12" fill="none" xmlns="http://www.w3.org/2000/svg">
<path d="M10.9582 6.65105C10.8402 7.55083 10.4794 8.40152 9.9145 9.11188C9.34962 9.82225 8.60196 10.3655 7.75173 10.6833C6.90149 11.0012 5.98074 11.0817 5.08824 10.9161C4.19573 10.7506 3.36512 10.3453 2.68551 9.74371C2.0059 9.14212 1.50291 8.36693 1.23049 7.50128C0.958069 6.63562 0.926497 5.71216 1.13916 4.82993C1.35182 3.9477 1.80069 3.13999 2.43763 2.49341C3.07457 1.84683 3.87556 1.38579 4.75468 1.15972C7.19171 0.534854 9.71438 1.78896 10.6457 4.12597" stroke="#2885E3" stroke-linecap="round" stroke-linejoin="round"/>
<path d="M11.0002 1.00195V4.12629H7.875" stroke="#2885E3" stroke-linecap="round" stroke-linejoin="round"/>
</svg>
