<svg width="33" height="34" viewBox="0 0 33 34" fill="none" xmlns="http://www.w3.org/2000/svg">
<circle cx="16.5" cy="17.1113" r="14.5" stroke="white" stroke-width="4"/>
<path d="M11.865 24V9.4H16.705C18.9584 9.4 20.645 9.84667 21.765 10.74C22.8984 11.62 23.465 12.94 23.465 14.7C23.465 16.42 22.9384 17.7333 21.885 18.64C20.8317 19.5467 19.3117 20 17.325 20H13.865V16.8H16.805C17.685 16.8 18.3317 16.6333 18.745 16.3C19.1584 15.9533 19.365 15.42 19.365 14.7C19.365 13.98 19.1584 13.4533 18.745 13.12C18.3317 12.7733 17.685 12.6 16.805 12.6H15.865V24H11.865Z" fill="white"/>
</svg>
