<svg width="23" height="24" viewBox="0 0 23 24" fill="none" xmlns="http://www.w3.org/2000/svg">
<path fill-rule="evenodd" clip-rule="evenodd" d="M13.4666 1.1672C13.0576 1 12.5382 1 11.5003 1C10.4625 1 9.94411 1 9.53406 1.1672C9.26425 1.27692 9.01891 1.43866 8.81215 1.64311C8.6054 1.84756 8.4413 2.09069 8.32932 2.3585C8.22543 2.6038 8.18564 2.8909 8.16906 3.3078C8.16117 3.60975 8.0763 3.90475 7.9224 4.16509C7.7685 4.42543 7.55064 4.64257 7.28928 4.7961C7.02263 4.94361 6.72288 5.02176 6.41781 5.0233C6.11274 5.02484 5.81221 4.94972 5.54407 4.8049C5.17049 4.6091 4.8997 4.5013 4.63223 4.4661C4.04709 4.39012 3.45542 4.54662 2.98539 4.9017C2.63392 5.1679 2.37419 5.6123 1.85582 6.5C1.33635 7.3877 1.07772 7.831 1.01914 8.2655C0.94177 8.8441 1.10093 9.4293 1.46124 9.8924C1.62482 10.1036 1.85582 10.2807 2.21282 10.5029C2.74003 10.8296 3.07824 11.3862 3.07824 12C3.07824 12.6138 2.74003 13.1704 2.21392 13.496C1.85582 13.7193 1.62482 13.8964 1.46014 14.1076C1.28282 14.3366 1.1526 14.5982 1.07693 14.8774C1.00126 15.1565 0.98162 15.4478 1.01914 15.7345C1.07772 16.1679 1.33635 16.6123 1.85582 17.5C2.37529 18.3877 2.63392 18.831 2.98539 19.0983C3.45402 19.4536 4.04644 19.6098 4.63223 19.5339C4.8997 19.4987 5.17049 19.3909 5.54407 19.1951C5.81235 19.0501 6.11308 18.9749 6.41836 18.9764C6.72365 18.9779 7.0236 19.0562 7.29038 19.2039C7.82754 19.5119 8.14585 20.0784 8.16906 20.6922C8.18564 21.1102 8.22543 21.3962 8.32932 21.6415C8.5548 22.1805 8.98806 22.6095 9.53406 22.8328C9.943 23 10.4625 23 11.5003 23C12.5382 23 13.0576 23 13.4666 22.8328C13.7364 22.7231 13.9817 22.5613 14.1885 22.3569C14.3952 22.1524 14.5593 21.9093 14.6713 21.6415C14.7752 21.3962 14.815 21.1102 14.8316 20.6922C14.8537 20.0784 15.1731 19.5108 15.7114 19.2039C15.978 19.0564 16.2778 18.9782 16.5828 18.9767C16.8879 18.9752 17.1884 19.0503 17.4566 19.1951C17.8301 19.3909 18.1009 19.4987 18.3684 19.5339C18.9542 19.6109 19.5466 19.4536 20.0152 19.0983C20.3667 18.8321 20.6264 18.3877 21.1448 17.5C21.6643 16.6123 21.9229 16.169 21.9815 15.7345C22.0189 15.4477 21.999 15.1564 21.9232 14.8772C21.8473 14.5981 21.7169 14.3366 21.5394 14.1076C21.3758 13.8964 21.1448 13.7193 20.7878 13.4971C20.2606 13.1704 19.9224 12.6138 19.9224 12C19.9224 11.3862 20.2606 10.8296 20.7867 10.504C21.1448 10.2807 21.3758 10.1036 21.5405 9.8924C21.7178 9.66337 21.848 9.40179 21.9237 9.12264C21.9994 8.84348 22.019 8.55222 21.9815 8.2655C21.9229 7.8321 21.6643 7.3877 21.1448 6.5C20.6253 5.6123 20.3667 5.169 20.0152 4.9017C19.5452 4.54662 18.9535 4.39012 18.3684 4.4661C18.1009 4.5013 17.8301 4.6091 17.4566 4.8049C17.1883 4.94991 16.8876 5.02514 16.5823 5.0236C16.277 5.02206 15.977 4.94381 15.7102 4.7961C15.4491 4.64243 15.2314 4.42524 15.0777 4.16491C14.9241 3.90458 14.8393 3.60965 14.8316 3.3078C14.815 2.8898 14.7752 2.6038 14.6713 2.3585C14.5593 2.09069 14.3952 1.84756 14.1885 1.64311C13.9817 1.43866 13.7364 1.27692 13.4666 1.1672ZM11.5003 15.3C13.3461 15.3 14.8415 13.8227 14.8415 12C14.8415 10.1773 13.345 8.7 11.5003 8.7C9.65564 8.7 8.15912 10.1773 8.15912 12C8.15912 13.8227 9.65564 15.3 11.5003 15.3Z" stroke="#666666" stroke-width="2"/>
</svg>
