<svg width="20" height="17" viewBox="0 0 20 17" fill="none" xmlns="http://www.w3.org/2000/svg">
<path d="M10.0083 0C8.27333 0 6.88 0.0161673 6.88917 0.0379933C6.8975 0.0541607 8.3125 2.46391 10.0342 5.3894L13.1675 10.7036H16.3008C18.035 10.7036 19.4283 10.6874 19.4192 10.6656C19.415 10.6495 17.9958 8.23971 16.2733 5.31422L13.14 0H10.0083ZM6.04167 1.39848C5.02524 3.09665 4.0169 4.79937 3.01667 6.50656L0 11.6268L1.575 14.2928L3.14583 16.958L6.1625 11.8369L9.1775 6.71997L7.61083 4.06286C6.75 2.60214 6.04583 1.40333 6.04167 1.39848ZM7.92417 11.6268L7.755 11.9081C7.66 12.0681 6.955 13.2597 6.18833 14.5652C5.72 15.3673 5.24833 16.1676 4.77333 16.966C4.765 16.9871 7.47333 17 10.7917 17H16.8283L18.325 14.448C19.1517 13.0463 19.8667 11.8369 19.9133 11.7618L20 11.6268H13.9592H7.92417Z" fill="#4932F4"/>
</svg>
