<svg width="21" height="21" viewBox="0 0 21 21" fill="none" xmlns="http://www.w3.org/2000/svg">
<path d="M10.5 0C4.704 0 0 4.704 0 10.5C0 16.296 4.704 21 10.5 21C16.296 21 21 16.296 21 10.5C21 4.704 16.296 0 10.5 0ZM10.5 4.2C12.5265 4.2 14.175 5.8485 14.175 7.875C14.175 9.9015 12.5265 11.55 10.5 11.55C8.4735 11.55 6.825 9.9015 6.825 7.875C6.825 5.8485 8.4735 4.2 10.5 4.2ZM10.5 18.9C8.3685 18.9 5.8485 18.039 4.053 15.876C5.89241 14.4335 8.16244 13.6496 10.5 13.6496C12.8376 13.6496 15.1076 14.4335 16.947 15.876C15.1515 18.039 12.6315 18.9 10.5 18.9Z" fill="#4932F4"/>
</svg>
