<svg width="20" height="20" viewBox="0 0 20 20" fill="none" xmlns="http://www.w3.org/2000/svg">
<path d="M10.0013 19C11.9982 18.9997 13.9384 18.3353 15.5162 17.1113C17.0941 15.8874 18.2201 14.1735 18.7169 12.2394C19.2138 10.3053 19.0533 8.26084 18.2608 6.42794C17.4682 4.59505 16.0886 3.0778 14.3391 2.11505C12.5896 1.15231 10.5695 0.798748 8.59704 1.11004C6.62454 1.42132 4.81158 2.37978 3.44359 3.83451C2.07559 5.28924 1.23026 7.15763 1.04067 9.14552C0.851074 11.1334 1.32799 13.1279 2.39634 14.815L1.00134 19L5.18634 17.605C6.62591 18.5187 8.2963 19.0026 10.0013 19Z" stroke="#666666" stroke-width="2" stroke-linecap="round" stroke-linejoin="round"/>
</svg>
