<svg width="30" height="23" viewBox="0 0 30 23" fill="none" xmlns="http://www.w3.org/2000/svg">
<path d="M28.384 4.255C28.566 4.96 28.692 5.905 28.776 7.105C28.874 8.305 28.916 9.34 28.916 10.24L29 11.5C29 14.785 28.776 17.2 28.384 18.745C28.034 20.095 27.222 20.965 25.962 21.34C25.304 21.535 24.1 21.67 22.252 21.76C20.432 21.865 18.766 21.91 17.226 21.91L15 22C9.134 22 5.48 21.76 4.038 21.34C2.778 20.965 1.966 20.095 1.616 18.745C1.434 18.04 1.308 17.095 1.224 15.895C1.126 14.695 1.084 13.66 1.084 12.76L1 11.5C1 8.215 1.224 5.8 1.616 4.255C1.966 2.905 2.778 2.035 4.038 1.66C4.696 1.465 5.9 1.33 7.748 1.24C9.568 1.135 11.234 1.09 12.774 1.09L15 1C20.866 1 24.52 1.24 25.962 1.66C27.222 2.035 28.034 2.905 28.384 4.255Z" stroke="#333333" stroke-width="2"/>
<path d="M19.4473 11.149C20.0826 11.5394 20.0826 12.4627 19.4473 12.8531L13.485 16.5166C12.8187 16.926 11.9615 16.4466 11.9615 15.6646L11.9615 8.33755C11.9615 7.55554 12.8187 7.07614 13.485 7.48553L19.4473 11.149Z" fill="#333333"/>
</svg>
